<?xml version="1.0" encoding="UTF-8" standalone="no"?>
<!-- Created with Inkscape (http://www.inkscape.org/) -->

<svg
   version="1.1"
   id="svg2"
   width="71.573334"
   height="72.440002"
   viewBox="0 0 71.573334 72.440002"
   sodipodi:docname="하누리logo.eps"
   xmlns:inkscape="http://www.inkscape.org/namespaces/inkscape"
   xmlns:sodipodi="http://sodipodi.sourceforge.net/DTD/sodipodi-0.dtd"
   xmlns="http://www.w3.org/2000/svg"
   xmlns:svg="http://www.w3.org/2000/svg">
  <defs
     id="defs6" />
  <sodipodi:namedview
     id="namedview4"
     pagecolor="#ffffff"
     bordercolor="#000000"
     borderopacity="0.25"
     inkscape:showpageshadow="2"
     inkscape:pageopacity="0.0"
     inkscape:pagecheckerboard="0"
     inkscape:deskcolor="#d1d1d1" />
  <g
     id="g8"
     inkscape:groupmode="layer"
     inkscape:label="ink_ext_XXXXXX"
     transform="matrix(1.3333333,0,0,-1.3333333,0,72.44)">
    <g
       id="g10"
       transform="scale(0.1)">
      <path
         d="m 56.1445,90.9961 c 0,3.7695 1.9102,5.6445 5.75,5.6445 h 3.7305 c 3.8398,0 5.7617,-1.875 5.7617,-5.6445 V 61.0938 H 86.5234 V 48.9336 H 71.3867 V 3.51563 H 56.1445 Z M 24.8438,19.5117 c 2.8789,0 4.875,0.7031 5.9648,2.1289 1.1055,1.4258 1.6602,3.8867 1.6602,7.4024 v 18.3984 c 0,3.6211 -0.5743,6.1133 -1.7071,7.4609 -1.1445,1.3477 -3.1133,2.0313 -5.9179,2.0313 -2.8047,0 -4.7657,-0.7031 -5.8594,-2.082 -1.1016,-1.3828 -1.6602,-3.8555 -1.6602,-7.4102 V 29.043 c 0,-3.6524 0.5664,-6.1602 1.7071,-7.5117 1.1328,-1.3555 3.0781,-2.0196 5.8125,-2.0196 z M 24.9023,7.46094 c -8.1835,0 -14.0234,1.71875 -17.54683,5.16796 -3.51953,3.4453 -5.27344,9.168 -5.27344,17.168 v 16.9023 c 0,7.5977 1.77344,13.2227 5.33203,16.836 3.55474,3.6328 9.38284,5.4492 17.48824,5.4492 8.1758,0 13.9961,-1.6797 17.4805,-5.0196 3.4844,-3.3398 5.2227,-9.1015 5.2227,-17.2656 V 29.7969 c 0,-8 -1.7383,-13.7227 -5.2227,-17.168 C 38.8984,9.17969 33.0781,7.46094 24.9023,7.46094 Z M 0,75.0586 v 11.7266 h 17.168 v 7.1406 c 0,2.3437 1.2109,3.5156 3.6211,3.5156 h 7.9492 c 2.414,0 3.625,-1.1719 3.625,-3.5156 V 86.7852 H 49.6406 V 75.0586 H 0"
         style="fill:#f14625;fill-opacity:1;fill-rule:nonzero;stroke:none"
         id="path12" />
      <path
         d="m 114.355,60.5547 h 48.301 V 48.5078 h -57.89 c -3.77,0 -5.6566,1.8828 -5.6566,5.6524 v 33.75 c 0,3.7617 1.9136,5.6445 5.7616,5.6445 h 3.734 c 3.836,0 5.75,-1.8828 5.75,-5.6445 z M 93.2422,37.3047 H 167.355 V 25.1563 H 137.922 V 3.19141 H 122.676 V 25.1563 H 93.2422 v 12.1484"
         style="fill:#f14625;fill-opacity:1;fill-rule:nonzero;stroke:none"
         id="path14" />
      <path
         d="M 250.305,90.9961 V 3.51563 H 235.051 V 90.9961 c 0,3.7695 1.922,5.6445 5.762,5.6445 h 3.726 c 3.84,0 5.766,-1.875 5.766,-5.6445 z m -32.95,2.5 c 3.766,0 5.641,-1.875 5.641,-5.6445 V 52.9883 c 0,-3.7695 -1.875,-5.6524 -5.641,-5.6524 H 192.664 V 21.6406 h 31.672 V 9.58984 h -41.055 c -3.84,0 -5.754,1.88286 -5.754,5.64456 v 38.6054 c 0,3.7657 1.914,5.6524 5.754,5.6524 h 24.473 v 22.0117 h -30.762 v 11.9922 h 40.363"
         style="fill:#f14625;fill-opacity:1;fill-rule:nonzero;stroke:none"
         id="path16" />
      <path
         d="m 339.863,78.2617 h -31.672 v -5.9765 h 31.672 z m 1.328,-61.1054 c 0,3.4101 -2.414,5.1289 -7.246,5.1289 h -19.726 c -4.903,0 -7.332,-1.7188 -7.305,-5.1289 0,-3.4063 2.434,-5.1133 7.305,-5.1133 h 19.726 c 4.832,0 7.246,1.707 7.246,5.1133 z M 314.277,0 c -15.078,0 -22.605,5.72266 -22.605,17.1563 0,11.4453 7.527,17.1679 22.605,17.1679 h 19.618 c 14.921,0 22.406,-5.7226 22.445,-17.1679 C 356.301,5.72266 348.816,0 333.895,0 Z m -6.086,89.8828 h 31.672 v 2.2266 c 0,3.4179 1.739,5.1172 5.227,5.1172 h 4.683 c 3.489,0 5.227,-1.6993 5.227,-5.1172 V 65.8867 c 0,-3.7695 -1.887,-5.6523 -5.645,-5.6523 h -17.597 v -7.8906 h 29.433 V 40.1953 h -74.113 v 12.1485 h 29.438 v 7.8906 h -17.805 c -3.848,0 -5.762,1.8828 -5.762,5.6523 v 26.2227 c 0,3.4179 1.739,5.1172 5.227,5.1172 h 4.793 c 3.484,0 5.222,-1.6993 5.222,-5.1172 v -2.2266"
         style="fill:#f14625;fill-opacity:1;fill-rule:nonzero;stroke:none"
         id="path18" />
      <path
         d="m 425.906,90.9961 c 0,3.7695 1.914,5.6445 5.754,5.6445 h 3.731 c 3.839,0 5.761,-1.875 5.761,-5.6445 V 61.0938 h 15.137 V 48.9336 H 441.152 V 3.51563 H 425.906 Z M 401.699,44.0234 c 0.645,-12.0117 7,-19.707 19.082,-23.0781 V 8.78906 h -1.484 C 407.852,10.1758 399.48,14.9414 394.18,23.0742 389.387,14.6484 381.836,9.53125 371.523,7.72266 h -0.957 V 19.8828 c 10.164,4.4336 15.497,12.4883 15.997,24.1406 v 44.4727 c 0,3.4062 1.738,5.1172 5.222,5.1172 h 4.692 c 3.484,0 5.222,-1.711 5.222,-5.1172 V 44.0234"
         style="fill:#f14625;fill-opacity:1;fill-rule:nonzero;stroke:none"
         id="path20" />
      <path
         d="m 521.602,90.9961 c 0,3.7695 1.914,5.6445 5.761,5.6445 h 3.731 c 3.84,0 5.754,-1.875 5.754,-5.6445 V 3.51563 H 521.602 Z M 496.863,54.2188 c 0,4.2968 -2.422,6.4453 -7.246,6.4453 h -2.461 c -4.898,0 -7.332,-2.1485 -7.301,-6.4453 0,-4.629 2.442,-6.9336 7.301,-6.9336 h 2.461 c 4.824,0 7.246,2.3046 7.246,6.9336 z m -33.797,23.496 v 11.7383 h 17.696 v 5.0117 c 0,2.3399 1.211,3.5118 3.633,3.5118 h 7.941 c 2.41,0 3.621,-1.1719 3.621,-3.5118 v -5.0117 h 17.598 V 77.7148 Z m 18.172,-41.582 c -11.082,1.5039 -16.629,7.5195 -16.629,18.086 0,11.9726 7.539,17.957 22.61,17.957 h 2.344 c 14.929,0 22.41,-5.9844 22.441,-17.957 -0.031,-10.2461 -5.207,-16.211 -15.512,-17.918 V 21.5313 H 516.16 V 9.375 h -53.152 v 12.1563 h 18.23 v 14.6015"
         style="fill:#f14625;fill-opacity:1;fill-rule:nonzero;stroke:none"
         id="path22" />
      <path
         d="m 451.184,315.375 c 0,-102.719 -83.262,-185.98 -185.981,-185.98 -102.723,0 -185.9842,83.261 -185.9842,185.98 0,102.715 83.2612,185.977 185.9842,185.977 102.719,0 185.981,-83.262 185.981,-185.977 z"
         style="fill:none;stroke:#f9a72c;stroke-width:3.56794;stroke-linecap:round;stroke-linejoin:round;stroke-miterlimit:4;stroke-dasharray:none;stroke-opacity:1"
         id="path24" />
      <path
         d="m 28.9727,338.559 37.4257,-2.371 -0.4492,-7.071 -18.1484,1.145 -0.5156,-8.074 18.1562,-1.149 -0.4531,-7.074 -37.418,2.375 c -1.8164,0.109 -2.668,1.09 -2.5508,2.937 l 0.0977,1.539 c 0.1172,1.844 1.0859,2.707 2.9023,2.598 l 13.8086,-0.879 0.5157,8.074 -13.8165,0.875 c -1.8085,0.118 -2.6601,1.094 -2.5429,2.942 l 0.1015,1.535 c 0.1172,1.848 1.0704,2.711 2.8868,2.598"
         style="fill:#ef2f33;fill-opacity:1;fill-rule:nonzero;stroke:none"
         id="path26" />
      <path
         d="m 63.1641,349.789 c 0.1367,0.742 0.0586,1.551 -0.2227,2.422 -0.293,0.871 -1.0976,1.43 -2.4062,1.68 l -2.1954,0.41 c 0.0391,-0.981 -0.0976,-2.172 -0.4101,-3.578 -0.2656,-1.399 -0.2227,-2.383 0.1055,-2.961 0.332,-0.574 0.9375,-0.946 1.8164,-1.114 0.8906,-0.168 1.6054,-0.043 2.1211,0.372 0.5273,0.418 0.8711,1.07 1.0351,1.964 z m 3.8476,4.918 c 1.4258,-1.871 1.836,-4.375 1.2305,-7.519 -0.4297,-2.379 -1.3555,-4.278 -2.7656,-5.7 -1.4024,-1.425 -3.6797,-1.84 -6.8321,-1.25 -2.2578,0.426 -3.9765,1.344 -5.1757,2.754 -1.2032,1.406 -1.504,3.731 -0.9102,6.965 l 0.9844,5.246 c -1.7266,0.328 -3.1602,-0.062 -4.2969,-1.176 -1.1328,-1.105 -1.9219,-4.285 -2.3711,-9.535 l -5.3437,1.035 c 0.539,6.082 1.8281,10.485 3.871,13.2 2.0391,2.718 5.6524,3.597 10.8165,2.64 l 5.7851,-1.09 c 1.3047,-0.261 2.207,-0.3 2.6953,-0.117 0.4844,0.192 0.7774,0.586 0.8789,1.195 l 5.1446,-0.968 c -0.1368,-1.367 -0.4805,-2.598 -1.0352,-3.699 -0.5547,-1.098 -1.4453,-1.758 -2.6758,-1.981"
         style="fill:#ef2f33;fill-opacity:1;fill-rule:nonzero;stroke:none"
         id="path28" />
      <path
         d="m 60.9844,373.523 12.6015,-4.019 -2.1601,-6.754 -23.2422,7.426 c -1.4063,0.429 -1.875,1.371 -1.4141,2.82 l 0.7774,2.449 c 0.414,1.274 1.2031,1.789 2.3828,1.559 -0.6328,1.605 -0.6328,3.387 -0.0078,5.344 0.957,3.019 2.539,5.031 4.7265,6.035 2.1954,1.008 4.9024,0.996 8.1329,-0.035 l 15.2656,-4.879 -2.1563,-6.75 -15.4609,4.941 c -1.5625,0.496 -2.7461,0.598 -3.543,0.293 -0.8008,-0.305 -1.3515,-0.906 -1.664,-1.816 -0.3204,-1.078 -0.1758,-2.227 0.4726,-3.438 0.6328,-1.211 2.3985,-2.265 5.2891,-3.176"
         style="fill:#ef2f33;fill-opacity:1;fill-rule:nonzero;stroke:none"
         id="path30" />
      <path
         d="m 66.8359,416.355 21.6485,-10.066 -2.9883,-6.43 -1.4609,0.684 c 0.3789,-1.652 0.1171,-3.465 -0.8047,-5.438 -1.336,-2.871 -3.1524,-4.671 -5.4492,-5.394 -2.3047,-0.723 -4.9883,-0.371 -8.0625,1.059 l -12.1602,5.656 c -1.6406,0.762 -2.0703,1.988 -1.2969,3.664 l 0.6524,1.394 c 0.7812,1.676 1.9922,2.133 3.6328,1.368 l 12.3437,-5.739 c 1.4961,-0.691 2.6758,-0.902 3.5352,-0.625 0.8672,0.278 1.5156,0.848 1.9336,1.711 0.664,1.391 0.7422,2.625 0.2422,3.703 -0.3594,0.758 -1.1797,1.524 -2.4414,2.301 l -12.3125,5.727 c -1.6485,0.769 -2.0782,1.988 -1.3008,3.664 l 0.6484,1.394 c 0.7774,1.684 1.9883,2.137 3.6406,1.367"
         style="fill:#ef2f33;fill-opacity:1;fill-rule:nonzero;stroke:none"
         id="path32" />
      <path
         d="m 82.7539,422.398 11.2813,-6.902 -3.7032,-6.043 -20.8086,12.731 c -1.2695,0.75 -1.5039,1.781 -0.7031,3.078 l 1.336,2.195 c 0.6914,1.137 1.5898,1.453 2.6875,0.941 -0.2461,1.7 -0.0118,3.141 0.7109,4.321 1.1523,1.886 2.625,2.746 4.4062,2.574 1.7852,-0.164 3.6914,-0.867 5.6993,-2.102 l 2.0625,-1.257 -3.5235,-5.762 -0.4804,0.293 c -1.4063,0.859 -2.4141,1.43 -3.0157,1.711 -0.6172,0.281 -1.1445,0.078 -1.5859,-0.613 -0.4649,-0.801 -0.2891,-1.465 0.5195,-2.008 0.8125,-0.535 2.5196,-1.59 5.1172,-3.157"
         style="fill:#ef2f33;fill-opacity:1;fill-rule:nonzero;stroke:none"
         id="path34" />
      <path
         d="m 85.3516,445.426 19.4064,-13.934 -4.145,-5.754 -19.3903,13.93 c -1.4766,1.059 -1.6836,2.34 -0.5977,3.844 l 0.8984,1.25 c 1.0743,1.504 2.3555,1.722 3.8282,0.664 z m -6.7188,0.461 c -0.5547,-0.782 -1.5234,-1.309 -2.8789,-1.586 -1.3594,-0.278 -2.5,-0.082 -3.4375,0.586 -0.9297,0.668 -1.4844,1.691 -1.6523,3.066 -0.1758,1.379 0.0195,2.457 0.5859,3.238 0.5547,0.778 1.5156,1.305 2.8711,1.582 1.3555,0.278 2.5117,0.082 3.4375,-0.585 0.9375,-0.668 1.4844,-1.692 1.6523,-3.067 0.1758,-1.379 -0.0195,-2.457 -0.5781,-3.234"
         style="fill:#ef2f33;fill-opacity:1;fill-rule:nonzero;stroke:none"
         id="path36" />
      <path
         d="m 84.6406,471.012 5.0664,5.164 27.004,-18.922 -18.4688,27.605 4.9338,5.024 20.879,-33.434 c 0.691,-1.094 0.593,-2.097 -0.305,-3.015 l -3.328,-3.391 c -1.059,-0.977 -2.082,-1.09 -3.067,-0.336 l -32.7144,21.305"
         style="fill:#ef2f33;fill-opacity:1;fill-rule:nonzero;stroke:none"
         id="path38" />
      <path
         d="m 129.727,486.93 c -2.2,-1.715 -2.254,-3.918 -0.164,-6.61 l 3.218,-4.16 c 2.082,-2.676 4.082,-3.265 6.028,-1.762 1.601,1.25 2.05,3.2 1.336,5.856 l -4.012,5.172 c -2.09,2.687 -4.231,3.191 -6.406,1.504 z m -3.575,4.57 c 5.918,4.594 11.192,3.926 15.801,-2.012 l 4.043,-5.215 c 2.219,-6.035 1.133,-10.757 -3.254,-14.16 -5.887,-4.578 -11.14,-3.902 -15.738,2.02 l -2.785,3.59 c -4.61,5.937 -3.965,11.195 1.933,15.777"
         style="fill:#ef2f33;fill-opacity:1;fill-rule:nonzero;stroke:none"
         id="path40" />
      <path
         d="m 134.219,510.219 c -0.977,1.527 -0.696,2.789 0.871,3.789 l 1.289,0.832 c 1.559,0.996 2.832,0.73 3.809,-0.797 l 17.878,-27.891 c 0.325,-0.504 0.789,-0.562 1.399,-0.172 l 1.863,-2.917 -4.648,-2.985 c -1.485,-0.953 -2.688,-0.699 -3.621,0.758 l -18.84,29.383"
         style="fill:#ef2f33;fill-opacity:1;fill-rule:nonzero;stroke:none"
         id="path42" />
      <path
         d="m 171.555,515.707 11.043,-21.176 -6.282,-3.281 -0.75,1.434 c -0.703,-1.543 -2.011,-2.817 -3.945,-3.821 -2.805,-1.465 -5.344,-1.789 -7.605,-0.965 -2.27,0.832 -4.192,2.747 -5.754,5.754 l -6.199,11.883 c -0.84,1.61 -0.442,2.844 1.199,3.699 l 1.367,0.711 c 1.633,0.856 2.871,0.481 3.711,-1.132 l 6.301,-12.067 c 0.757,-1.457 1.57,-2.336 2.422,-2.644 0.859,-0.309 1.714,-0.25 2.566,0.179 1.379,0.699 2.195,1.625 2.461,2.789 0.168,0.825 -0.012,1.93 -0.535,3.309 l -6.289,12.047 c -0.84,1.613 -0.442,2.844 1.199,3.695 l 1.367,0.715 c 1.641,0.855 2.883,0.477 3.723,-1.129"
         style="fill:#ef2f33;fill-opacity:1;fill-rule:nonzero;stroke:none"
         id="path44" />
      <path
         d="m 187.805,510.828 4.578,-12.402 -6.641,-2.461 -8.469,22.887 c -0.527,1.378 -0.066,2.328 1.36,2.855 l 2.414,0.891 c 1.25,0.465 2.144,0.156 2.691,-0.918 0.871,1.488 2.27,2.593 4.2,3.304 2.968,1.098 5.531,1.094 7.667,-0.015 2.149,-1.102 3.809,-3.246 4.981,-6.426 l 5.559,-15.031 -6.653,-2.457 -5.625,15.222 c -0.578,1.539 -1.222,2.536 -1.953,2.977 -0.723,0.441 -1.543,0.508 -2.449,0.187 -1.059,-0.41 -1.86,-1.234 -2.426,-2.484 -0.555,-1.246 -0.301,-3.289 0.766,-6.129"
         style="fill:#ef2f33;fill-opacity:1;fill-rule:nonzero;stroke:none"
         id="path46" />
      <path
         d="m 209.055,513.445 -2.825,11.766 -2.5,-0.602 -1.152,4.793 3.25,0.782 -2.051,8.515 c -0.418,1.766 0.266,2.864 2.075,3.297 l 1.492,0.356 c 1.797,0.437 2.91,-0.235 3.332,-1.997 l 2.051,-8.519 7.664,1.84 1.14,-4.793 -8.406,-2.02 2.605,-10.886 c 0.43,-1.782 0.879,-2.891 1.34,-3.325 0.469,-0.437 1.016,-0.566 1.641,-0.402 1.367,0.313 1.687,1.984 0.969,5.016 l 6.558,1.57 c 0.766,-3.231 0.703,-5.832 -0.183,-7.805 -0.879,-1.972 -3.157,-3.398 -6.817,-4.277 -2.527,-0.606 -4.675,-0.41 -6.433,0.594 -1.77,1 -3.02,3.031 -3.75,6.097"
         style="fill:#ef2f33;fill-opacity:1;fill-rule:nonzero;stroke:none"
         id="path48" />
      <path
         d="m 244.016,527.75 c -0.168,1.41 -0.598,2.48 -1.282,3.207 -0.695,0.731 -1.816,1.012 -3.359,0.848 -2.871,-0.356 -4.133,-2.039 -3.777,-5.047 z m -2.895,-17.227 c -6.746,-0.656 -10.555,2.688 -11.414,10.032 l -0.293,2.422 c -1.008,8.625 1.621,13.3 7.899,14.043 l 1.582,0.187 c 3.222,0.375 5.824,-0.207 7.793,-1.75 1.964,-1.547 3.136,-3.879 3.5,-7.012 l 0.308,-2.601 c 0.219,-1.836 -0.586,-2.86 -2.383,-3.071 l -11.914,-1.402 c 0.442,-3.91 2.121,-5.687 5.024,-5.332 l 1.406,0.168 c 0.934,0.109 1.656,0.508 2.176,1.199 0.508,0.688 0.722,1.52 0.625,2.492 l 6.472,0.762 c 0.61,-5.847 -2.105,-9.117 -8.125,-9.824 l -2.656,-0.313"
         style="fill:#ef2f33;fill-opacity:1;fill-rule:nonzero;stroke:none"
         id="path50" />
      <path
         d="m 270.559,528.656 c 0.027,1.422 -0.254,2.539 -0.84,3.352 -0.586,0.812 -1.66,1.242 -3.227,1.289 -2.887,0.027 -4.363,-1.477 -4.414,-4.504 z m -5.149,-16.687 c -6.777,0.242 -10.105,4.066 -9.988,11.457 l 0.039,2.441 c 0.144,8.684 3.367,12.969 9.684,12.867 l 1.593,-0.023 c 3.25,-0.055 5.75,-0.977 7.5,-2.77 1.739,-1.793 2.586,-4.261 2.532,-7.41 l -0.04,-2.625 c -0.031,-1.843 -0.949,-2.758 -2.765,-2.726 l -11.992,0.195 c -0.086,-3.937 1.34,-5.918 4.265,-5.953 l 1.418,-0.02 c 0.938,-0.015 1.707,0.282 2.317,0.899 0.593,0.613 0.918,1.41 0.945,2.387 l 6.523,-0.106 c -0.183,-5.871 -3.3,-8.758 -9.367,-8.66 l -2.664,0.047"
         style="fill:#ef2f33;fill-opacity:1;fill-rule:nonzero;stroke:none"
         id="path52" />
      <path
         d="m 288.352,524.047 -1.477,-13.145 -7.051,0.793 2.735,24.246 c 0.144,1.465 0.976,2.11 2.492,1.946 l 2.554,-0.289 c 1.333,-0.153 1.997,-0.832 1.997,-2.035 1.433,0.941 2.839,1.332 4.214,1.179 2.192,-0.25 3.594,-1.215 4.192,-2.906 0.605,-1.684 0.769,-3.703 0.508,-6.055 l -0.262,-2.394 -6.723,0.754 0.071,0.562 c 0.183,1.637 0.273,2.789 0.273,3.457 0,0.676 -0.41,1.067 -1.23,1.172 -0.918,0.09 -1.446,-0.352 -1.59,-1.316 -0.149,-0.969 -0.383,-2.957 -0.703,-5.969"
         style="fill:#ef2f33;fill-opacity:1;fill-rule:nonzero;stroke:none"
         id="path54" />
      <path
         d="m 332.5,536.863 c -3.484,1.047 -5.801,-0.304 -6.926,-4.062 l -4.89,-16.367 c -1.121,-3.735 -0.098,-6.079 3.066,-7.024 2.313,-0.695 4.766,0.61 7.363,3.906 l 4.895,16.36 c 1.121,3.762 -0.039,6.152 -3.508,7.187 z m 1.641,5.575 c 8.007,-2.399 10.859,-7.442 8.554,-15.133 l -4.687,-15.676 c -4.285,-7.043 -9.434,-9.688 -15.449,-7.922 -7.981,2.387 -10.813,7.414 -8.516,15.09 l 4.687,15.676 c 2.305,7.695 7.442,10.347 15.411,7.965"
         style="fill:#ef2f33;fill-opacity:1;fill-rule:nonzero;stroke:none"
         id="path56" />
      <path
         d="m 349.375,508.012 -5.281,-12.125 -6.504,2.832 9.746,22.371 c 0.574,1.355 1.559,1.726 2.957,1.121 l 2.352,-1.031 c 1.222,-0.532 1.664,-1.375 1.308,-2.528 1.645,0.477 3.11,0.438 4.375,-0.113 2.024,-0.883 3.078,-2.215 3.156,-4.008 0.079,-1.793 -0.351,-3.769 -1.296,-5.933 l -0.958,-2.215 -6.203,2.699 0.235,0.516 c 0.656,1.511 1.074,2.586 1.281,3.222 0.191,0.645 -0.09,1.141 -0.832,1.485 -0.859,0.351 -1.492,0.09 -1.914,-0.789 -0.418,-0.883 -1.231,-2.715 -2.422,-5.504"
         style="fill:#ef2f33;fill-opacity:1;fill-rule:nonzero;stroke:none"
         id="path58" />
      <path
         d="m 369.211,494.57 c 1.18,-0.699 2.254,-0.863 3.23,-0.5 0.977,0.371 1.692,0.95 2.137,1.735 l 1.235,2.133 c 0.796,1.496 0.972,2.773 0.527,3.847 -0.449,1.07 -1.152,1.895 -2.129,2.477 -0.844,0.465 -1.711,0.566 -2.602,0.312 -0.894,-0.25 -1.754,-1.09 -2.578,-2.515 l -1.441,-2.489 c -0.598,-1 -0.735,-1.929 -0.422,-2.793 0.312,-0.863 0.996,-1.597 2.043,-2.207 z m 1.414,-5.617 c -1.719,-0.215 -3.77,0.367 -6.145,1.735 -2.339,1.351 -3.777,3.05 -4.292,5.093 -0.532,2.039 -0.09,4.262 1.296,6.664 l 1.614,2.805 c 1.699,2.934 3.687,4.766 5.996,5.496 2.293,0.727 4.812,0.305 7.554,-1.285 1.797,-1.035 3.059,-2.254 3.79,-3.664 0.585,0.57 1.339,0.594 2.257,0.062 l 2.664,-1.543 c 1.145,-0.66 1.399,-1.554 0.762,-2.691 l -10.137,-17.574 c -3.406,-5.903 -8.093,-7.153 -14.058,-3.75 -3.203,1.851 -5.332,3.726 -6.399,5.637 -1.062,1.91 -0.683,4.441 1.145,7.601 l 5.848,-3.379 c -1.141,-1.949 -0.657,-3.523 1.472,-4.734 1.34,-0.793 2.461,-0.965 3.352,-0.508 0.898,0.449 1.992,1.797 3.281,4.035"
         style="fill:#ef2f33;fill-opacity:1;fill-rule:nonzero;stroke:none"
         id="path60" />
      <path
         d="m 388.398,476.59 c 0.606,-0.453 1.36,-0.742 2.266,-0.871 0.918,-0.129 1.77,0.336 2.578,1.406 l 1.348,1.781 c -0.906,0.399 -1.914,1.055 -3.027,1.961 -1.133,0.856 -2.032,1.262 -2.708,1.219 -0.664,-0.047 -1.257,-0.422 -1.792,-1.133 -0.547,-0.723 -0.754,-1.414 -0.618,-2.066 0.137,-0.649 0.575,-1.25 1.297,-1.797 z m 2.696,-5.633 c -2.305,-0.445 -4.739,0.301 -7.285,2.246 -1.934,1.442 -3.223,3.11 -3.875,5.004 -0.657,1.895 -0.012,4.121 1.914,6.676 1.382,1.832 2.976,2.969 4.773,3.418 1.785,0.445 4.004,-0.313 6.641,-2.281 l 4.265,-3.219 c 1.059,1.406 1.352,2.863 0.852,4.371 -0.488,1.508 -2.988,3.629 -7.488,6.363 l 3.297,4.332 c 5.214,-3.183 8.585,-6.297 10.109,-9.332 1.523,-3.043 0.715,-6.664 -2.442,-10.871 l -3.542,-4.691 c -0.825,-1.055 -1.25,-1.844 -1.301,-2.364 -0.047,-0.523 0.176,-0.961 0.676,-1.316 l -3.157,-4.188 c -1.164,0.735 -2.121,1.59 -2.851,2.575 -0.735,0.988 -0.926,2.074 -0.586,3.277"
         style="fill:#ef2f33;fill-opacity:1;fill-rule:nonzero;stroke:none"
         id="path62" />
      <path
         d="m 410.496,468.129 -9.18,-9.516 -5.105,4.922 16.941,17.559 c 1.008,1.07 2.063,1.074 3.164,0.019 l 1.848,-1.789 c 0.957,-0.922 1.074,-1.863 0.344,-2.824 1.719,-0.137 3.316,-0.918 4.793,-2.344 2.285,-2.203 3.387,-4.508 3.32,-6.922 -0.058,-2.406 -1.269,-4.832 -3.625,-7.273 l -11.133,-11.535 -5.093,4.922 11.265,11.687 c 1.145,1.18 1.75,2.195 1.836,3.047 0.078,0.848 -0.215,1.609 -0.894,2.289 -0.825,0.77 -1.926,1.137 -3.293,1.102 -1.368,-0.039 -3.094,-1.153 -5.188,-3.344"
         style="fill:#ef2f33;fill-opacity:1;fill-rule:nonzero;stroke:none"
         id="path64" />
      <path
         d="m 438.523,462.605 c -0.632,0.723 -0.925,1.778 -0.878,3.165 0.043,1.386 0.5,2.457 1.359,3.21 0.867,0.75 1.992,1.055 3.367,0.903 1.379,-0.153 2.387,-0.59 3.02,-1.313 0.625,-0.722 0.918,-1.777 0.879,-3.164 -0.047,-1.386 -0.5,-2.457 -1.368,-3.215 -0.871,-0.75 -1.992,-1.05 -3.371,-0.898 -1.375,0.152 -2.383,0.59 -3.008,1.312 z m -2,-6.429 -18.027,-15.664 -4.648,5.351 18.027,15.664 c 1.367,1.188 2.668,1.086 3.879,-0.312 l 1.004,-1.16 c 1.222,-1.399 1.133,-2.692 -0.235,-3.879"
         style="fill:#ef2f33;fill-opacity:1;fill-rule:nonzero;stroke:none"
         id="path66" />
      <path
         d="m 422.656,440.117 2.371,1.758 18.45,0.98 -5.918,7.985 4.355,3.226 8.899,-12.011 c 1.101,-1.485 0.925,-2.77 -0.54,-3.848 l -2.16,-1.605 -18.66,-1.133 6.074,-8.196 -4.406,-3.253 -9.078,12.257 c -1.074,1.457 -0.871,2.735 0.613,3.84"
         style="fill:#ef2f33;fill-opacity:1;fill-rule:nonzero;stroke:none"
         id="path68" />
      <path
         d="m 442.82,415.473 c 0.371,-0.649 0.957,-1.211 1.75,-1.684 0.789,-0.473 1.758,-0.375 2.91,0.293 l 1.934,1.117 c -0.664,0.719 -1.348,1.715 -2.019,2.985 -0.715,1.23 -1.379,1.953 -2.012,2.171 -0.637,0.219 -1.328,0.106 -2.102,-0.339 -0.793,-0.457 -1.238,-1.012 -1.367,-1.668 -0.129,-0.657 0.039,-1.375 0.496,-2.16 z m 0.293,-6.239 c -2.3,0.489 -4.246,2.118 -5.84,4.903 -1.218,2.078 -1.765,4.121 -1.628,6.117 0.136,1.996 1.589,3.797 4.367,5.406 1.98,1.145 3.894,1.582 5.718,1.293 1.829,-0.289 3.579,-1.851 5.239,-4.683 l 2.676,-4.625 c 1.523,0.886 2.351,2.117 2.488,3.699 0.129,1.582 -1.348,4.504 -4.434,8.773 l 4.727,2.703 c 3.562,-4.961 5.461,-9.132 5.683,-12.527 0.227,-3.395 -1.933,-6.41 -6.472,-9.063 l -5.09,-2.945 c -1.16,-0.652 -1.875,-1.211 -2.117,-1.676 -0.254,-0.457 -0.215,-0.949 0.105,-1.472 l -4.531,-2.625 c -0.789,1.125 -1.328,2.285 -1.633,3.48 -0.293,1.192 -0.047,2.27 0.742,3.242"
         style="fill:#ef2f33;fill-opacity:1;fill-rule:nonzero;stroke:none"
         id="path70" />
      <path
         d="m 453.867,402.027 11.094,4.813 -1.023,2.359 4.531,1.961 1.328,-3.066 8.023,3.488 c 1.672,0.723 2.871,0.234 3.606,-1.461 l 0.617,-1.414 c 0.73,-1.695 0.27,-2.906 -1.398,-3.629 l -8.028,-3.484 3.137,-7.235 -4.524,-1.961 -3.449,7.938 -10.269,-4.453 c -1.684,-0.731 -2.699,-1.363 -3.039,-1.895 -0.352,-0.531 -0.391,-1.093 -0.118,-1.683 0.547,-1.293 2.247,-1.325 5.11,-0.082 l 2.683,-6.2 c -3.054,-1.304 -5.625,-1.691 -7.722,-1.164 -2.09,0.528 -3.891,2.52 -5.395,5.977 -1.035,2.387 -1.211,4.535 -0.523,6.445 0.68,1.907 2.469,3.489 5.359,4.746"
         style="fill:#ef2f33;fill-opacity:1;fill-rule:nonzero;stroke:none"
         id="path72" />
      <path
         d="m 482.668,385.73 c -0.313,0.911 -0.18,1.993 0.379,3.262 0.566,1.266 1.394,2.086 2.48,2.453 1.082,0.368 2.239,0.219 3.457,-0.445 1.219,-0.664 1.985,-1.445 2.293,-2.359 0.305,-0.907 0.176,-1.993 -0.386,-3.258 -0.571,-1.266 -1.387,-2.086 -2.485,-2.453 -1.082,-0.367 -2.234,-0.219 -3.457,0.445 -1.219,0.664 -1.98,1.449 -2.281,2.355 z m -4.289,-5.195 -22.625,-7.652 -2.277,6.711 22.628,7.656 c 1.715,0.582 2.872,0 3.465,-1.754 l 0.496,-1.457 c 0.586,-1.754 0.032,-2.922 -1.687,-3.504"
         style="fill:#ef2f33;fill-opacity:1;fill-rule:nonzero;stroke:none"
         id="path74" />
      <path
         d="m 480.203,364.027 c -0.652,2.715 -2.637,3.672 -5.945,2.875 l -5.117,-1.234 c -3.301,-0.789 -4.661,-2.375 -4.09,-4.762 0.476,-1.976 2.066,-3.187 4.785,-3.625 l 6.363,1.532 c 3.313,0.796 4.653,2.535 4.004,5.214 z m 5.637,1.383 c 1.758,-7.289 -1.016,-11.816 -8.328,-13.574 l -6.418,-1.543 c -6.414,0.465 -10.274,3.395 -11.574,8.785 -1.747,7.262 1.027,11.762 8.324,13.52 l 4.414,1.062 c 7.312,1.762 11.836,-0.988 13.582,-8.25"
         style="fill:#ef2f33;fill-opacity:1;fill-rule:nonzero;stroke:none"
         id="path76" />
      <path
         d="m 476.66,339.281 -13.144,-1.437 -0.774,7.043 24.262,2.656 c 1.453,0.18 2.273,-0.488 2.437,-2 l 0.278,-2.555 c 0.144,-1.328 -0.371,-2.125 -1.543,-2.394 1.226,-1.207 1.961,-2.832 2.183,-4.875 0.344,-3.145 -0.281,-5.625 -1.875,-7.438 -1.589,-1.812 -4.07,-2.898 -7.437,-3.269 l -15.942,-1.746 -0.769,7.047 16.144,1.765 c 1.629,0.18 2.75,0.567 3.36,1.168 0.601,0.602 0.855,1.379 0.769,2.336 -0.136,1.121 -0.742,2.102 -1.816,2.953 -1.074,0.844 -3.113,1.094 -6.133,0.746"
         style="fill:#ef2f33;fill-opacity:1;fill-rule:nonzero;stroke:none"
         id="path78" />
      <path
         d="m 126.836,260.195 v 0.379 c -0.254,-0.105 -0.344,-0.222 0,-0.379"
         style="fill:#f14625;fill-opacity:1;fill-rule:nonzero;stroke:none"
         id="path80" />
      <path
         d="m 212.512,361.902 c -10.52,0 -19.074,8.563 -19.074,19.082 0,10.528 8.554,19.09 19.074,19.09 10.523,0 19.082,-8.562 19.082,-19.09 0,-10.519 -8.559,-19.082 -19.082,-19.082 z m 101.511,-8.39 c -10.507,0 -19.074,8.558 -19.074,19.07 0,10.531 8.567,19.094 19.074,19.094 10.54,0 19.082,-8.563 19.082,-19.094 0,-10.512 -8.542,-19.07 -19.082,-19.07 z m 71.934,-115.328 c -0.723,-2.188 -1.445,-3.711 -2.766,-5.176 1.387,-8.399 19.438,-3.028 22.817,1.777 4.512,6.387 6.687,18.086 6.687,25.82 0,10.586 -1.816,20.926 -5.246,30.625 6.086,6.27 9.328,11.067 9.68,11.625 3.516,5.305 2.07,12.458 -3.234,15.961 -5.301,3.52 -12.45,2.063 -15.957,-3.242 -0.04,-0.051 -0.614,-0.906 -1.727,-2.308 -7.988,11.523 -18.621,21.304 -31.328,28.367 -5.137,2.832 -10.508,5.148 -16.055,6.945 4.863,6.883 7.754,15.25 7.754,24.293 0,23.277 -18.953,42.231 -42.246,42.231 -23.281,0 -42.227,-18.954 -42.227,-42.231 0,-10.644 3.996,-20.348 10.508,-27.781 -2.363,-1.051 -4.695,-2.168 -6.965,-3.414 -5.562,-3.074 -7.586,-10.09 -4.5,-15.656 3.067,-5.567 10.078,-7.594 15.645,-4.516 10.168,5.609 21.726,8.578 33.445,8.578 11.86,0 23.137,-2.894 33.481,-8.602 10.64,-5.925 19.363,-14.382 25.547,-24.371 -10.239,-7.453 -24.59,-14.597 -42.891,-15.82 -39.27,-2.637 -68.801,37.332 -69.074,37.715 -0.157,0.215 -0.313,0.426 -0.489,0.625 -9.16,11.031 -20.566,19.59 -33.253,25.309 12.472,7.351 20.89,20.882 20.89,36.375 0,23.285 -18.945,42.238 -42.234,42.238 -23.281,0 -42.219,-18.953 -42.219,-42.238 0,-11.356 4.52,-21.668 11.836,-29.266 -10.773,-1.625 -21.262,-5.121 -30.906,-10.426 -14.426,-7.926 -26.516,-19.859 -34.895,-34.004 -4.18,-7.074 -7.43,-14.687 -9.629,-22.617 -2.59,-9.387 -0.996,-17.07 3.555,-25.664 1.609,-3.066 5.477,-7.188 9.227,-7.402 4.015,-0.215 7.582,3.914 6.964,7.812 -0.047,0.02 -0.078,0.027 -0.129,0.059 v -0.274 0.274 m 1.223,0.898 v -0.168 0.168 c -0.156,-0.039 -0.305,-0.078 -0.41,-0.129 v -0.379 c 0.027,-0.019 0.078,-0.039 0.117,-0.058 -0.012,0.097 -0.019,0.176 -0.027,0.273"
         style="fill:#f14625;fill-opacity:1;fill-rule:nonzero;stroke:none"
         id="path82" />
      <path
         d="m 102.207,275.254 312.805,-33.77 c 0,0 -39.66,-109.082 -175.442,-94.89 0,0 -108.347,5.222 -137.363,128.66"
         style="fill:#f14625;fill-opacity:1;fill-rule:nonzero;stroke:none"
         id="path84" />
      <path
         d="m 61.3867,301.781 c 0,-4.433 -3.6054,-8.031 -8.0273,-8.031 -4.4336,0 -8.0274,3.598 -8.0274,8.031 0,4.43 3.5938,8.02 8.0274,8.02 4.4219,0 8.0273,-3.59 8.0273,-8.02"
         style="fill:#ef2f33;fill-opacity:1;fill-rule:nonzero;stroke:none"
         id="path86" />
      <path
         d="m 485.77,318.609 c 0,-4.433 -3.582,-8.027 -8.016,-8.027 -4.434,0 -8.035,3.594 -8.035,8.027 0,4.434 3.601,8.024 8.035,8.024 4.434,0 8.016,-3.59 8.016,-8.024"
         style="fill:#ef2f33;fill-opacity:1;fill-rule:nonzero;stroke:none"
         id="path88" />
      <path
         d="m 435.898,315.375 c 0,-94.273 -76.418,-170.699 -170.695,-170.699 -94.273,0 -170.6913,76.426 -170.6913,170.699 0,94.273 76.4183,170.695 170.6913,170.695 94.277,0 170.695,-76.422 170.695,-170.695 z"
         style="fill:none;stroke:#f9a72c;stroke-width:19.6237;stroke-linecap:round;stroke-linejoin:round;stroke-miterlimit:4;stroke-dasharray:none;stroke-opacity:1"
         id="path90" />
      <path
         d="m 202.48,266.094 c 0,3.183 1.622,4.785 4.875,4.785 h 3.153 c 3.254,0 4.875,-1.602 4.875,-4.785 v -25.293 h 12.801 V 230.516 H 215.383 V 192.098 H 202.48 Z m -26.464,-60.469 c 2.429,0 4.121,0.605 5.047,1.805 0.929,1.203 1.398,3.293 1.398,6.261 v 15.567 c 0,3.066 -0.481,5.168 -1.445,6.308 -0.957,1.145 -2.625,1.719 -5,1.719 -2.371,0 -4.036,-0.586 -4.961,-1.758 -0.926,-1.172 -1.399,-3.261 -1.399,-6.269 v -15.567 c 0,-3.086 0.481,-5.214 1.449,-6.347 0.958,-1.153 2.594,-1.719 4.911,-1.719 z m 0.047,-10.195 c -6.922,0 -11.864,1.465 -14.84,4.375 -2.969,2.918 -4.465,7.761 -4.465,14.531 v 14.285 c 0,6.438 1.504,11.184 4.512,14.25 3.007,3.067 7.941,4.598 14.793,4.598 6.906,0 11.835,-1.414 14.789,-4.239 2.949,-2.82 4.414,-7.695 4.414,-14.609 v -14.285 c 0,-6.77 -1.465,-11.613 -4.414,-14.531 -2.954,-2.91 -7.883,-4.375 -14.789,-4.375 z M 155,252.617 v 9.91 h 14.52 v 6.047 c 0,1.981 1.027,2.969 3.07,2.969 h 6.719 c 2.039,0 3.062,-0.988 3.062,-2.969 v -6.047 h 14.609 v -9.91 H 155"
         style="fill:#ffffff;fill-opacity:1;fill-rule:nonzero;stroke:none"
         id="path92" />
      <path
         d="m 251.73,240.352 h 40.848 v -10.196 h -48.973 c -3.183,0 -4.777,1.59 -4.777,4.785 v 28.536 c 0,3.183 1.621,4.785 4.871,4.785 h 3.156 c 3.243,0 4.875,-1.602 4.875,-4.785 z m -17.863,-19.668 h 62.676 V 210.41 h -24.895 v -18.574 h -12.886 v 18.574 h -24.895 v 10.274"
         style="fill:#ffffff;fill-opacity:1;fill-rule:nonzero;stroke:none"
         id="path94" />
      <path
         d="m 366.699,266.094 v -73.996 h -12.89 v 73.996 c 0,3.183 1.621,4.785 4.863,4.785 h 3.164 c 3.242,0 4.863,-1.602 4.863,-4.785 z m -27.859,2.121 c 3.18,0 4.773,-1.594 4.773,-4.777 v -29.493 c 0,-3.183 -1.593,-4.785 -4.773,-4.785 h -20.879 v -21.73 h 26.785 V 197.246 H 310.02 c -3.243,0 -4.864,1.582 -4.864,4.774 v 32.648 c 0,3.184 1.621,4.773 4.864,4.773 h 20.703 v 18.625 h -26.016 v 10.149 h 34.133"
         style="fill:#ffffff;fill-opacity:1;fill-rule:nonzero;stroke:none"
         id="path96" />
    </g>
  </g>
</svg>
